<svg width="16" height="23" viewBox="0 0 16 23" fill="none" xmlns="http://www.w3.org/2000/svg">
<path fill-rule="evenodd" clip-rule="evenodd" d="M15.9904 21.483V2.75648C15.9965 2.03156 15.7192 1.33389 15.2197 0.816974C14.7202 0.300055 14.0393 0.00623181 13.3269 0.000147639H2.6729C1.96048 0.00623181 0.571429 0 0.000113117 2.01337e-05C9.56269e-10 0.581385 0.003359 2.03156 0.00938882 2.75648V21.483C-0.0539263 22.0237 0.206968 22.5505 0.671754 22.8204C1.13654 23.0902 1.71493 23.0508 2.14019 22.7203L7.20086 18.2741C7.65706 17.8551 8.35075 17.8551 8.80695 18.2741L13.8596 22.7216C14.2851 23.0524 14.8639 23.0918 15.3288 22.8215C15.7937 22.5513 16.0544 22.024 15.9904 21.483Z" fill="url(#paint0_linear_629_603)"/>
<defs>
<linearGradient id="paint0_linear_629_603" x1="5.4966" y1="8.9756" x2="16.2678" y2="9.07956" gradientUnits="userSpaceOnUse">
<stop stop-color="#5A73FC"/>
<stop offset="0.9999" stop-color="#5D5AFC" stop-opacity="0.84"/>
<stop offset="1" stop-color="#5A73FC" stop-opacity="0"/>
</linearGradient>
</defs>
</svg>
