<svg width="25" height="35" viewBox="0 0 25 35" fill="none" xmlns="http://www.w3.org/2000/svg">
<path fill-rule="evenodd" clip-rule="evenodd" d="M23.9863 31.8819V4.96245C23.9949 3.92037 23.5964 2.91747 22.8783 2.1744C22.1603 1.43133 21.1816 1.00896 20.1575 1.00021H4.84229C3.81819 1.00896 1.82143 1 1.00016 1.00003C1 1.83574 1.00483 3.92037 1.0135 4.96245V31.8819C0.922481 32.6591 1.29752 33.4163 1.96565 33.8043C2.63378 34.1922 3.46522 34.1355 4.07653 33.6604L11.3512 27.269C12.007 26.6667 13.0042 26.6667 13.66 27.269L20.9232 33.6623C21.5348 34.1379 22.3668 34.1944 23.0351 33.806C23.7035 33.4175 24.0782 32.6595 23.9863 31.8819Z" stroke="black" stroke-linecap="round" stroke-linejoin="round"/>
</svg>
