<svg width="16" height="16" viewBox="0 0 16 16" fill="none" xmlns="http://www.w3.org/2000/svg">
<path d="M10.67 7.053L6.68004 11.315C6.34156 11.6932 5.85986 11.9119 5.35236 11.9178C4.84487 11.9237 4.35821 11.7162 4.01104 11.346C3.24412 10.5454 3.257 9.27885 4.04004 8.494L9.39904 2.763C9.99015 2.10491 10.8315 1.72677 11.7161 1.72163C12.6006 1.71649 13.4463 2.08482 14.045 2.736C15.3222 4.14736 15.3131 6.29949 14.024 7.7L8.34204 13.771C7.53339 14.5827 6.42651 15.0261 5.28113 14.9971C4.13575 14.9682 3.05268 14.4695 2.28604 13.618C0.533695 11.6414 0.577053 8.6549 2.38604 6.73L7.75304 1" stroke="white" stroke-width="1.25" stroke-linecap="round" stroke-linejoin="round"/>
</svg>
