<svg width="18" height="19" viewBox="0 0 18 19" fill="none" xmlns="http://www.w3.org/2000/svg">
<path d="M4.65044 7.7C4.52033 5.3 4.74694 1 8.80612 1C12.8536 1 12.9833 5.3 12.8536 7.7M8.80612 13.55V15.35M3.34184 18.5H14.2704C15.5638 18.5 16.6122 17.2912 16.6122 15.8V10.4C16.6122 8.90883 15.5638 7.7 14.2704 7.7H3.34184C2.04848 7.7 1 8.90883 1 10.4V15.8C1 17.2912 2.04848 18.5 3.34184 18.5ZM10.3673 12.2C10.3673 13.1941 9.66836 14 8.80612 14C7.94388 14 7.2449 13.1941 7.2449 12.2C7.2449 11.2059 7.94388 10.4 8.80612 10.4C9.66836 10.4 10.3673 11.2059 10.3673 12.2Z" stroke="#7D7D7D"/>
</svg>
