<svg width="13" height="15" viewBox="0 0 13 15" fill="none" xmlns="http://www.w3.org/2000/svg">
<path d="M7.08033 3.5944C7.25303 3.37892 7.21835 3.06424 7.00287 2.89155C6.78739 2.71885 6.47272 2.75353 6.30002 2.96901L7.08033 3.5944ZM1.28501 10.0258L1.6637 10.3523C1.6676 10.3477 1.67143 10.3431 1.67517 10.3385L1.28501 10.0258ZM1.1283 10.4089L0.629273 10.3763L0.628837 10.3857L1.1283 10.4089ZM1 13.1793L0.500535 13.1561C0.499386 13.1809 0.500089 13.2058 0.502639 13.2306L1 13.1793ZM1.72124 13.8088L1.73758 14.3086C1.77093 14.3075 1.80408 14.3031 1.83654 14.2954L1.72124 13.8088ZM4.47056 13.1573L4.58588 13.6438L4.59364 13.6419L4.47056 13.1573ZM4.82339 12.9336L5.20912 13.2519L5.21346 13.2464L4.82339 12.9336ZM10.7488 6.34382C10.9215 6.12839 10.8869 5.81371 10.6715 5.64095C10.4561 5.4682 10.1414 5.50279 9.96861 5.71822L10.7488 6.34382ZM6.3028 2.96889C6.13003 3.18431 6.1646 3.499 6.38002 3.67177C6.59544 3.84454 6.91013 3.80997 7.0829 3.59455L6.3028 2.96889ZM8.14815 1.46717L8.5382 1.78C8.54477 1.7718 8.55108 1.7634 8.55713 1.75481L8.14815 1.46717ZM9.64103 1.17391L9.96091 0.789614C9.94498 0.77636 9.92825 0.764109 9.91081 0.75293L9.64103 1.17391ZM11.6911 2.88032L12.045 2.52709C12.0341 2.51622 12.0228 2.50585 12.011 2.49602L11.6911 2.88032ZM11.9999 3.6326L12.4999 3.63535V3.63535L11.9999 3.6326ZM11.6829 4.38145L11.3329 4.02435C11.3187 4.03824 11.3054 4.05296 11.293 4.06844L11.6829 4.38145ZM9.9687 5.71803C9.79583 5.93337 9.83026 6.24807 10.0456 6.42094C10.2609 6.59381 10.5756 6.55938 10.7485 6.34405L9.9687 5.71803ZM7.18732 3.2076C7.1464 2.93451 6.89184 2.7463 6.61875 2.78722C6.34565 2.82815 6.15744 3.08271 6.19837 3.3558L7.18732 3.2076ZM10.4259 6.52647C10.6996 6.48929 10.8912 6.23733 10.8541 5.9637C10.8169 5.69007 10.5649 5.49839 10.2913 5.53557L10.4259 6.52647ZM6.30002 2.96901L0.894858 9.71309L1.67517 10.3385L7.08033 3.5944L6.30002 2.96901ZM0.906325 9.69929C0.74288 9.88887 0.645651 10.1265 0.629361 10.3763L1.62724 10.4414C1.62939 10.4085 1.64218 10.3772 1.6637 10.3523L0.906325 9.69929ZM0.628837 10.3857L0.500535 13.1561L1.49946 13.2024L1.62777 10.432L0.628837 10.3857ZM0.502639 13.2306C0.567397 13.8584 1.10674 14.3292 1.73758 14.3086L1.70489 13.3091C1.59888 13.3126 1.50824 13.2335 1.49736 13.128L0.502639 13.2306ZM1.83654 14.2954L4.58586 13.6438L4.35525 12.6707L1.60593 13.3223L1.83654 14.2954ZM4.59364 13.6419C4.83503 13.5806 5.0506 13.4439 5.20909 13.2518L4.43769 12.6155C4.41446 12.6436 4.38286 12.6637 4.34748 12.6726L4.59364 13.6419ZM5.21346 13.2464L10.7488 6.34382L9.96861 5.71822L4.43332 12.6208L5.21346 13.2464ZM7.0829 3.59455L8.5382 1.78L7.7581 1.15434L6.3028 2.96889L7.0829 3.59455ZM8.55713 1.75481C8.7419 1.4921 9.10084 1.42159 9.37126 1.59488L9.91081 0.75293C9.18948 0.290685 8.23204 0.478765 7.73918 1.17952L8.55713 1.75481ZM9.32116 1.5582L11.3712 3.26461L12.011 2.49602L9.96091 0.789614L9.32116 1.5582ZM11.3372 3.23355C11.4421 3.33866 11.5007 3.48134 11.4999 3.62986L12.4999 3.63535C12.5022 3.22004 12.3384 2.82104 12.045 2.52709L11.3372 3.23355ZM11.4999 3.62985C11.4991 3.77837 11.439 3.9204 11.3329 4.02435L12.0328 4.73854C12.3295 4.44784 12.4976 4.05066 12.4999 3.63535L11.4999 3.62985ZM11.293 4.06844L9.9687 5.71803L10.7485 6.34405L12.0728 4.69445L11.293 4.06844ZM6.19837 3.3558C6.50334 5.39096 8.38677 6.80354 10.4259 6.52647L10.2913 5.53557C8.7941 5.739 7.41124 4.70186 7.18732 3.2076L6.19837 3.3558Z" fill="#4880EE"/>
</svg>
