<svg width="17" height="19" viewBox="0 0 17 19" fill="none" xmlns="http://www.w3.org/2000/svg">
<path d="M12.5 4.5C12.5 6.70914 10.7091 8.5 8.5 8.5C6.29086 8.5 4.5 6.70914 4.5 4.5C4.5 2.29086 6.29086 0.5 8.5 0.5C10.7091 0.5 12.5 2.29086 12.5 4.5Z" stroke="#7D7D7D"/>
<path fill-rule="evenodd" clip-rule="evenodd" d="M6 11H11C13.7614 11 16 13.2386 16 16V18H17V16C17 12.6863 14.3137 10 11 10H6C2.68629 10 0 12.6863 0 16V18H1V16C1 13.2386 3.23858 11 6 11Z" fill="#7D7D7D"/>
<path d="M0.5 17.5V18.5" stroke="#7D7D7D" stroke-linecap="round"/>
<path d="M16.5 17.5V18.5" stroke="#7D7D7D" stroke-linecap="round"/>
</svg>
