<svg width="16" height="12" viewBox="0 0 16 12" fill="none" xmlns="http://www.w3.org/2000/svg">
<path d="M9.40517 10.6379C9.20521 10.8284 9.19749 11.1449 9.38793 11.3448C9.57837 11.5448 9.89486 11.5525 10.0948 11.3621L9.40517 10.6379ZM15.3448 6.36207C15.5448 6.17163 15.5525 5.85514 15.3621 5.65517C15.1716 5.45521 14.8551 5.44749 14.6552 5.63793L15.3448 6.36207ZM14.6552 6.36207C14.8551 6.55251 15.1716 6.54479 15.3621 6.34483C15.5525 6.14486 15.5448 5.82837 15.3448 5.63793L14.6552 6.36207ZM10.0948 0.637931C9.89486 0.447488 9.57837 0.455207 9.38793 0.655172C9.19749 0.855138 9.20521 1.17163 9.40517 1.36207L10.0948 0.637931ZM15 6.5C15.2761 6.5 15.5 6.27614 15.5 6C15.5 5.72386 15.2761 5.5 15 5.5V6.5ZM1 5.5C0.723858 5.5 0.5 5.72386 0.5 6C0.5 6.27614 0.723858 6.5 1 6.5V5.5ZM10.0948 11.3621L15.3448 6.36207L14.6552 5.63793L9.40517 10.6379L10.0948 11.3621ZM15.3448 5.63793L10.0948 0.637931L9.40517 1.36207L14.6552 6.36207L15.3448 5.63793ZM15 5.5L1 5.5V6.5L15 6.5V5.5Z" fill="#4880EE"/>
</svg>
