<svg width="29" height="41" viewBox="0 0 29 41" fill="none" xmlns="http://www.w3.org/2000/svg">
<path fill-rule="evenodd" clip-rule="evenodd" d="M28.5167 37.6509V4.83075C28.5275 3.56025 28.0331 2.33752 27.1423 1.43157C26.2515 0.525617 25.0372 0.0106631 23.7667 0H4.76674C3.49624 0.0106631 2.28202 0.525617 1.39121 1.43157C0.500405 2.33752 0.00599032 3.56025 0.0167437 4.83075V37.6509C-0.0961701 38.5985 0.369099 39.5217 1.19798 39.9947C2.02686 40.4677 3.05835 40.3986 3.81674 39.8193L12.8417 32.0269C13.6553 31.2926 14.8924 31.2926 15.706 32.0269L24.7167 39.8216C25.4755 40.4014 26.5077 40.4704 27.3368 39.9967C28.1659 39.5231 28.6308 38.5989 28.5167 37.6509Z" fill="#EF5353"/>
</svg>
