<svg width="34" height="34" viewBox="0 0 34 34" fill="none" xmlns="http://www.w3.org/2000/svg">
<rect width="34" height="34" fill="#F5F5F5"/>
<rect width="375" height="812" transform="translate(-26 -23)" fill="white"/>
<rect width="34" height="34" rx="3" fill="#5A73FC"/>
<path d="M5.824 25.096H5.216C5.216 24.0933 5.51467 22.1733 6.112 19.336C6.73067 16.4987 7.04 14.888 7.04 14.504C7.04 13.8 6.74133 13.0533 6.144 12.264L5.856 11.88L5.888 11.464C7.04 11.144 8.88533 10.984 11.424 10.984C11.7227 11.3893 11.872 12.0507 11.872 12.968C13.792 11.5387 15.3173 10.824 16.448 10.824C17.8773 10.824 18.72 11.56 18.976 13.032C19.552 12.5627 20.2987 12.0827 21.216 11.592C22.1547 11.08 22.9867 10.824 23.712 10.824C24.4587 10.824 25.0773 11.0693 25.568 11.56C26.0587 12.0293 26.304 12.6907 26.304 13.544C26.304 14.3973 26.0693 15.8053 25.6 17.768C25.1307 19.7307 24.896 21.0533 24.896 21.736C24.896 22.3973 24.992 22.728 25.184 22.728C25.312 22.728 25.7493 22.5253 26.496 22.12L26.848 21.928L27.424 23.048C26.8693 23.6027 26.112 24.136 25.152 24.648C24.2133 25.1387 23.3813 25.384 22.656 25.384C21.056 25.384 20.256 24.4773 20.256 22.664C20.256 22.0027 20.48 20.68 20.928 18.696C21.3973 16.6907 21.632 15.3893 21.632 14.792C21.632 14.1733 21.4507 13.864 21.088 13.864C20.4693 13.864 19.7653 14.0987 18.976 14.568C18.9333 14.9947 18.6347 16.4453 18.08 18.92C17.5467 21.3947 17.28 23.3147 17.28 24.68C16.6613 24.9573 15.2107 25.096 12.928 25.096C12.8853 24.8613 12.864 24.296 12.864 23.4C12.864 22.504 13.1093 20.9787 13.6 18.824C14.112 16.6693 14.368 15.304 14.368 14.728C14.368 14.152 14.1653 13.864 13.76 13.864C13.12 13.864 12.416 14.12 11.648 14.632C11.6053 14.824 11.392 15.7627 11.008 17.448C10.24 20.8187 9.856 23.2187 9.856 24.648C9.10933 24.9467 7.76533 25.096 5.824 25.096Z" fill="white"/>
<circle cx="28.5" cy="7.5" r="1.5" fill="white"/>
<rect x="-872.5" y="-2942.5" width="6448" height="4253" stroke="black" stroke-width="3"/>
</svg>
