<svg width="16" height="19" viewBox="0 0 16 19" fill="none" xmlns="http://www.w3.org/2000/svg">
<path d="M8.82907 4.37377C9.08811 4.05055 9.03609 3.57854 8.71288 3.31949C8.38966 3.06045 7.91765 3.11246 7.6586 3.43568L8.82907 4.37377ZM1.36283 12.4902L1.93086 12.98C1.93672 12.9732 1.94246 12.9663 1.94807 12.9593L1.36283 12.4902ZM1.16333 12.9779L0.41479 12.9291L0.414136 12.9432L1.16333 12.9779ZM1 16.5047L0.250803 16.47C0.249078 16.5073 0.250133 16.5446 0.253958 16.5817L1 16.5047ZM1.91817 17.3062L1.94269 18.0558C1.9927 18.0542 2.04243 18.0475 2.09113 18.036L1.91817 17.3062ZM5.41817 16.4767L5.59115 17.2066L5.60279 17.2036L5.41817 16.4767ZM5.86733 16.1921L6.44594 16.6694L6.45244 16.6613L5.86733 16.1921ZM13.4991 7.87393C13.7582 7.55078 13.7063 7.07875 13.3832 6.81962C13.0601 6.56049 12.588 6.61238 12.3289 6.93552L13.4991 7.87393ZM7.66226 3.43548C7.4031 3.75861 7.45496 4.23064 7.77809 4.4898C8.10122 4.74895 8.57325 4.69709 8.83241 4.37397L7.66226 3.43548ZM10.1 1.59473L10.6851 2.06397C10.6949 2.05168 10.7044 2.03908 10.7135 2.02619L10.1 1.59473ZM12.0005 1.22139L12.4803 0.644951C12.4564 0.62507 12.4313 0.606693 12.4052 0.589926L12.0005 1.22139ZM14.6103 3.39372L15.1412 2.86388C15.1249 2.84758 15.1079 2.83203 15.0901 2.81728L14.6103 3.39372ZM15.0034 4.35141L15.7534 4.35553L15.7534 4.35553L15.0034 4.35141ZM14.5998 5.30472L14.0749 4.76908C14.0536 4.78992 14.0336 4.812 14.015 4.83521L14.5998 5.30472ZM12.3291 6.93521C12.0698 7.25822 12.1215 7.73028 12.4445 7.98958C12.7675 8.24889 13.2396 8.19724 13.4989 7.87424L12.3291 6.93521ZM8.98905 3.79358C8.92767 3.38394 8.54582 3.10162 8.13618 3.16301C7.72655 3.22439 7.44423 3.60623 7.50562 4.01587L8.98905 3.79358ZM13.015 8.1479C13.4254 8.09213 13.7129 7.71419 13.6572 7.30375C13.6014 6.8933 13.2235 6.60579 12.813 6.66155L13.015 8.1479ZM7.6586 3.43568L0.777601 12.0212L1.94807 12.9593L8.82907 4.37377L7.6586 3.43568ZM0.794802 12.0005C0.570623 12.2605 0.437265 12.5865 0.414923 12.9291L1.91174 13.0267C1.91287 13.0095 1.91958 12.993 1.93086 12.98L0.794802 12.0005ZM0.414136 12.9432L0.250803 16.47L1.7492 16.5394L1.91253 13.0126L0.414136 12.9432ZM0.253958 16.5817C0.342512 17.4402 1.08004 18.084 1.94269 18.0558L1.89365 16.5566C1.81825 16.5591 1.75378 16.5028 1.74604 16.4278L0.253958 16.5817ZM2.09113 18.036L5.59113 17.2065L5.24521 15.7469L1.74521 16.5764L2.09113 18.036ZM5.60279 17.2036C5.93346 17.1197 6.22878 16.9325 6.44588 16.6693L5.28878 15.7148C5.27456 15.732 5.25521 15.7443 5.23355 15.7498L5.60279 17.2036ZM6.45244 16.6613L13.4991 7.87393L12.3289 6.93552L5.28223 15.7229L6.45244 16.6613ZM8.83241 4.37397L10.6851 2.06397L9.51493 1.12548L7.66226 3.43548L8.83241 4.37397ZM10.7135 2.02619C10.9137 1.74146 11.3028 1.66504 11.5958 1.85286L12.4052 0.589926C11.4357 -0.0313219 10.1489 0.221453 9.48654 1.16326L10.7135 2.02619ZM11.5207 1.79783L14.1305 3.97017L15.0901 2.81728L12.4803 0.644951L11.5207 1.79783ZM14.0795 3.92357C14.1917 4.03595 14.2543 4.1885 14.2534 4.34729L15.7534 4.35553C15.7565 3.79655 15.5361 3.25952 15.1412 2.86388L14.0795 3.92357ZM14.2534 4.34729C14.2526 4.50608 14.1883 4.65794 14.0749 4.76908L15.1248 5.84037C15.524 5.4491 15.7503 4.91452 15.7534 4.35553L14.2534 4.34729ZM14.015 4.83521L12.3291 6.93521L13.4989 7.87424L15.1847 5.77424L14.015 4.83521ZM7.50562 4.01587C7.90306 6.6681 10.3576 8.50897 13.015 8.1479L12.813 6.66155C10.9685 6.91217 9.26491 5.63445 8.98905 3.79358L7.50562 4.01587Z" fill="white"/>
</svg>
