<svg width="16" height="20" viewBox="0 0 16 20" fill="none" xmlns="http://www.w3.org/2000/svg">
<path fill-rule="evenodd" clip-rule="evenodd" d="M12.7644 1.16231L14.7094 2.74531C14.8972 2.9283 15.0024 3.17982 15.0009 3.44201C14.9994 3.70421 14.8913 3.9545 14.7014 4.13531L13.2234 5.93531L8.19341 12.0723C8.10632 12.1749 7.98908 12.2473 7.85841 12.2793L5.25041 12.8793C4.90435 12.8936 4.60593 12.6384 4.56641 12.2943L4.68841 9.72131C4.69745 9.58995 4.74945 9.4652 4.83641 9.36631L9.64941 3.50131L11.3444 1.43331C11.6737 0.98505 12.2931 0.866839 12.7644 1.16231Z" stroke="#4880EE" stroke-width="1.5" stroke-linecap="round" stroke-linejoin="round"/>
<path d="M1 15.2415C0.585786 15.2415 0.25 15.5773 0.25 15.9915C0.25 16.4057 0.585786 16.7415 1 16.7415V15.2415ZM14.7 16.7415C15.1142 16.7415 15.45 16.4057 15.45 15.9915C15.45 15.5773 15.1142 15.2415 14.7 15.2415V16.7415ZM10.3455 3.22075C10.1904 2.83664 9.75338 2.65094 9.36928 2.80598C8.98518 2.96102 8.79948 3.39808 8.95452 3.78218L10.3455 3.22075ZM13.3893 6.67003C13.7933 6.57876 14.0468 6.17723 13.9556 5.7732C13.8643 5.36917 13.4628 5.11563 13.0587 5.2069L13.3893 6.67003ZM1 16.7415H14.7V15.2415H1V16.7415ZM8.95452 3.78218C9.18716 4.35855 9.66502 5.18024 10.3765 5.81292C11.1011 6.4573 12.133 6.95383 13.3893 6.67003L13.0587 5.2069C12.416 5.3521 11.8609 5.12563 11.3733 4.69201C10.8725 4.24669 10.5128 3.63538 10.3455 3.22075L8.95452 3.78218Z" fill="#4880EE"/>
</svg>
