<svg width="17" height="21" viewBox="0 0 17 21" fill="none" xmlns="http://www.w3.org/2000/svg">
<path fill-rule="evenodd" clip-rule="evenodd" d="M14.7501 7.14307H4.24929C3.66962 7.14307 3.19971 7.62257 3.19971 8.21407V16.7859C3.19971 18.5611 4.61001 20.0002 6.34971 20.0002H12.6497C13.4851 20.0002 14.2864 19.6616 14.8771 19.0588C15.4678 18.456 15.7997 17.6384 15.7997 16.7859V8.21407C15.7997 7.62257 15.3298 7.14307 14.7501 7.14307Z" stroke="#F84A4A" stroke-width="1.5" stroke-linecap="round" stroke-linejoin="round"/>
<path fill-rule="evenodd" clip-rule="evenodd" d="M15.5 4.57129L12.8765 4.45023C12.2371 2.33573 10.9297 1 9.4996 1C8.06949 1 6.76214 2.33573 6.12269 4.45023L3 4.57129H15.5Z" stroke="#F84A4A" stroke-width="1.5" stroke-linecap="round" stroke-linejoin="round"/>
<path d="M7.88281 11.1558C7.88281 10.7415 7.54703 10.4058 7.13281 10.4058C6.7186 10.4058 6.38281 10.7415 6.38281 11.1558H7.88281ZM6.38281 15.5771C6.38281 15.9913 6.7186 16.3271 7.13281 16.3271C7.54703 16.3271 7.88281 15.9913 7.88281 15.5771H6.38281ZM12.217 11.1558C12.217 10.7415 11.8812 10.4058 11.467 10.4058C11.0528 10.4058 10.717 10.7415 10.717 11.1558H12.217ZM10.717 15.5771C10.717 15.9913 11.0528 16.3271 11.467 16.3271C11.8812 16.3271 12.217 15.9913 12.217 15.5771H10.717ZM6.38281 11.1558V15.5771H7.88281V11.1558H6.38281ZM10.717 11.1558V15.5771H12.217V11.1558H10.717Z" fill="#F84A4A"/>
</svg>
